<mxfile host="app.diagrams.net" agent="Mozilla/5.0 (Windows NT 10.0; Win64; x64; rv:143.0) Gecko/20100101 Firefox/143.0" version="28.0.6">
  <diagram name="Page-1" id="xK1MXJZ7FSHNyuHFRWDz">
    <mxGraphModel dx="913" dy="608" grid="1" gridSize="10" guides="1" tooltips="1" connect="1" arrows="1" fold="1" page="1" pageScale="1" pageWidth="827" pageHeight="1169" math="0" shadow="0">
      <root>
        <mxCell id="0" />
        <mxCell id="1" parent="0" />
        <mxCell id="PcOTl7jaeYxXwrJTTBFI-121" value="1" style="shape=connector;rounded=0;orthogonalLoop=1;jettySize=auto;html=1;exitX=1;exitY=0.25;exitDx=0;exitDy=0;entryX=0;entryY=0.25;entryDx=0;entryDy=0;strokeColor=default;align=center;verticalAlign=middle;fontFamily=Helvetica;fontSize=11;fontColor=default;labelBackgroundColor=default;endArrow=classic;" edge="1" parent="1" source="PcOTl7jaeYxXwrJTTBFI-117" target="PcOTl7jaeYxXwrJTTBFI-118">
          <mxGeometry relative="1" as="geometry" />
        </mxCell>
        <mxCell id="PcOTl7jaeYxXwrJTTBFI-125" value="5" style="edgeStyle=orthogonalEdgeStyle;shape=connector;curved=1;rounded=0;orthogonalLoop=1;jettySize=auto;html=1;exitX=0.25;exitY=1;exitDx=0;exitDy=0;entryX=0.25;entryY=0;entryDx=0;entryDy=0;strokeColor=default;align=center;verticalAlign=middle;fontFamily=Helvetica;fontSize=11;fontColor=default;labelBackgroundColor=default;endArrow=classic;" edge="1" parent="1" source="PcOTl7jaeYxXwrJTTBFI-117" target="PcOTl7jaeYxXwrJTTBFI-120">
          <mxGeometry relative="1" as="geometry" />
        </mxCell>
        <mxCell id="PcOTl7jaeYxXwrJTTBFI-117" value="&lt;div&gt;App&lt;/div&gt;&lt;div&gt;Frontend&lt;/div&gt;&lt;div&gt;(any)&lt;/div&gt;" style="rounded=0;whiteSpace=wrap;html=1;fontFamily=Helvetica;fontSize=11;fontColor=default;labelBackgroundColor=default;" vertex="1" parent="1">
          <mxGeometry x="60" y="180" width="120" height="60" as="geometry" />
        </mxCell>
        <mxCell id="PcOTl7jaeYxXwrJTTBFI-122" value="2" style="edgeStyle=orthogonalEdgeStyle;shape=connector;curved=1;rounded=0;orthogonalLoop=1;jettySize=auto;html=1;exitX=0.75;exitY=1;exitDx=0;exitDy=0;entryX=0.75;entryY=0;entryDx=0;entryDy=0;strokeColor=default;align=center;verticalAlign=middle;fontFamily=Helvetica;fontSize=11;fontColor=default;labelBackgroundColor=default;endArrow=classic;" edge="1" parent="1" source="PcOTl7jaeYxXwrJTTBFI-118" target="PcOTl7jaeYxXwrJTTBFI-119">
          <mxGeometry relative="1" as="geometry" />
        </mxCell>
        <mxCell id="PcOTl7jaeYxXwrJTTBFI-124" value="4" style="edgeStyle=orthogonalEdgeStyle;shape=connector;curved=1;rounded=0;orthogonalLoop=1;jettySize=auto;html=1;exitX=0;exitY=0.75;exitDx=0;exitDy=0;entryX=1;entryY=0.75;entryDx=0;entryDy=0;strokeColor=default;align=center;verticalAlign=middle;fontFamily=Helvetica;fontSize=11;fontColor=default;labelBackgroundColor=default;endArrow=classic;" edge="1" parent="1" source="PcOTl7jaeYxXwrJTTBFI-118" target="PcOTl7jaeYxXwrJTTBFI-117">
          <mxGeometry relative="1" as="geometry" />
        </mxCell>
        <mxCell id="PcOTl7jaeYxXwrJTTBFI-118" value="&lt;div&gt;Auth&lt;/div&gt;&lt;div&gt;Frontend&lt;/div&gt;&lt;div&gt;(authentic)&lt;/div&gt;" style="rounded=0;whiteSpace=wrap;html=1;fontFamily=Helvetica;fontSize=11;fontColor=default;labelBackgroundColor=default;" vertex="1" parent="1">
          <mxGeometry x="300" y="180" width="120" height="60" as="geometry" />
        </mxCell>
        <mxCell id="PcOTl7jaeYxXwrJTTBFI-123" value="3" style="edgeStyle=orthogonalEdgeStyle;shape=connector;curved=1;rounded=0;orthogonalLoop=1;jettySize=auto;html=1;exitX=0.25;exitY=0;exitDx=0;exitDy=0;entryX=0.25;entryY=1;entryDx=0;entryDy=0;strokeColor=default;align=center;verticalAlign=middle;fontFamily=Helvetica;fontSize=11;fontColor=default;labelBackgroundColor=default;endArrow=classic;" edge="1" parent="1" source="PcOTl7jaeYxXwrJTTBFI-119" target="PcOTl7jaeYxXwrJTTBFI-118">
          <mxGeometry relative="1" as="geometry" />
        </mxCell>
        <mxCell id="PcOTl7jaeYxXwrJTTBFI-127" value="7" style="edgeStyle=orthogonalEdgeStyle;shape=connector;curved=1;rounded=0;orthogonalLoop=1;jettySize=auto;html=1;exitX=0;exitY=0.25;exitDx=0;exitDy=0;entryX=1;entryY=0.25;entryDx=0;entryDy=0;strokeColor=default;align=center;verticalAlign=middle;fontFamily=Helvetica;fontSize=11;fontColor=default;labelBackgroundColor=default;endArrow=classic;" edge="1" parent="1" source="PcOTl7jaeYxXwrJTTBFI-119" target="PcOTl7jaeYxXwrJTTBFI-120">
          <mxGeometry relative="1" as="geometry" />
        </mxCell>
        <mxCell id="PcOTl7jaeYxXwrJTTBFI-119" value="&lt;div&gt;Auth&lt;/div&gt;&lt;div&gt;Server&lt;/div&gt;(authentic)" style="rounded=0;whiteSpace=wrap;html=1;fontFamily=Helvetica;fontSize=11;fontColor=default;labelBackgroundColor=default;" vertex="1" parent="1">
          <mxGeometry x="300" y="360" width="120" height="60" as="geometry" />
        </mxCell>
        <mxCell id="PcOTl7jaeYxXwrJTTBFI-126" value="6" style="edgeStyle=orthogonalEdgeStyle;shape=connector;curved=1;rounded=0;orthogonalLoop=1;jettySize=auto;html=1;exitX=1;exitY=0.75;exitDx=0;exitDy=0;entryX=0;entryY=0.75;entryDx=0;entryDy=0;strokeColor=default;align=center;verticalAlign=middle;fontFamily=Helvetica;fontSize=11;fontColor=default;labelBackgroundColor=default;endArrow=classic;" edge="1" parent="1" source="PcOTl7jaeYxXwrJTTBFI-120" target="PcOTl7jaeYxXwrJTTBFI-119">
          <mxGeometry relative="1" as="geometry" />
        </mxCell>
        <mxCell id="PcOTl7jaeYxXwrJTTBFI-128" value="8" style="edgeStyle=orthogonalEdgeStyle;shape=connector;curved=1;rounded=0;orthogonalLoop=1;jettySize=auto;html=1;exitX=0.75;exitY=0;exitDx=0;exitDy=0;entryX=0.75;entryY=1;entryDx=0;entryDy=0;strokeColor=default;align=center;verticalAlign=middle;fontFamily=Helvetica;fontSize=11;fontColor=default;labelBackgroundColor=default;endArrow=classic;" edge="1" parent="1" source="PcOTl7jaeYxXwrJTTBFI-120" target="PcOTl7jaeYxXwrJTTBFI-117">
          <mxGeometry relative="1" as="geometry" />
        </mxCell>
        <mxCell id="PcOTl7jaeYxXwrJTTBFI-120" value="&lt;div&gt;App server&lt;/div&gt;(any)" style="rounded=0;whiteSpace=wrap;html=1;fontFamily=Helvetica;fontSize=11;fontColor=default;labelBackgroundColor=default;" vertex="1" parent="1">
          <mxGeometry x="60" y="360" width="120" height="60" as="geometry" />
        </mxCell>
        <mxCell id="PcOTl7jaeYxXwrJTTBFI-129" value="1. Authorization request start. Link to Auth frontend with nessesary info for authorization request." style="text;html=1;align=center;verticalAlign=middle;whiteSpace=wrap;rounded=0;fontFamily=Helvetica;fontSize=11;fontColor=default;labelBackgroundColor=default;" vertex="1" parent="1">
          <mxGeometry x="480" y="70" width="280" height="30" as="geometry" />
        </mxCell>
        <mxCell id="PcOTl7jaeYxXwrJTTBFI-130" value="1.5. If user is not logged when arriving they will login with email/password against /api/auth. Response contains access token and refresh token in http only cookie." style="text;html=1;align=center;verticalAlign=middle;whiteSpace=wrap;rounded=0;fontFamily=Helvetica;fontSize=11;fontColor=default;labelBackgroundColor=default;" vertex="1" parent="1">
          <mxGeometry x="480" y="120" width="290" height="50" as="geometry" />
        </mxCell>
        <mxCell id="PcOTl7jaeYxXwrJTTBFI-131" value="2. After user confirms authorization the authorization request is sent to the server." style="text;html=1;align=center;verticalAlign=middle;whiteSpace=wrap;rounded=0;fontFamily=Helvetica;fontSize=11;fontColor=default;labelBackgroundColor=default;" vertex="1" parent="1">
          <mxGeometry x="480" y="180" width="290" height="30" as="geometry" />
        </mxCell>
        <mxCell id="PcOTl7jaeYxXwrJTTBFI-132" value="3. Auth server responds with authorization code" style="text;html=1;align=center;verticalAlign=middle;whiteSpace=wrap;rounded=0;fontFamily=Helvetica;fontSize=11;fontColor=default;labelBackgroundColor=default;" vertex="1" parent="1">
          <mxGeometry x="480" y="220" width="250" height="30" as="geometry" />
        </mxCell>
        <mxCell id="PcOTl7jaeYxXwrJTTBFI-133" value="4. user is redirected back to app frontend with authozation code" style="text;html=1;align=center;verticalAlign=middle;whiteSpace=wrap;rounded=0;fontFamily=Helvetica;fontSize=11;fontColor=default;labelBackgroundColor=default;" vertex="1" parent="1">
          <mxGeometry x="480" y="260" width="290" height="30" as="geometry" />
        </mxCell>
        <mxCell id="PcOTl7jaeYxXwrJTTBFI-134" value="5. Tokenmm exchange requests is proxied thru app server and provides it with nessesary info" style="text;html=1;align=center;verticalAlign=middle;whiteSpace=wrap;rounded=0;fontFamily=Helvetica;fontSize=11;fontColor=default;labelBackgroundColor=default;" vertex="1" parent="1">
          <mxGeometry x="480" y="300" width="290" height="30" as="geometry" />
        </mxCell>
        <mxCell id="PcOTl7jaeYxXwrJTTBFI-135" value="&lt;div&gt;6. Token exchange request happens&lt;/div&gt;" style="text;html=1;align=center;verticalAlign=middle;whiteSpace=wrap;rounded=0;fontFamily=Helvetica;fontSize=11;fontColor=default;labelBackgroundColor=default;" vertex="1" parent="1">
          <mxGeometry x="480" y="350" width="250" height="35" as="geometry" />
        </mxCell>
        <mxCell id="PcOTl7jaeYxXwrJTTBFI-137" value="7. Auth server responds with both access token and refresh token in json response" style="text;html=1;align=center;verticalAlign=middle;whiteSpace=wrap;rounded=0;fontFamily=Helvetica;fontSize=11;fontColor=default;labelBackgroundColor=default;" vertex="1" parent="1">
          <mxGeometry x="470" y="430" width="290" height="30" as="geometry" />
        </mxCell>
        <mxCell id="PcOTl7jaeYxXwrJTTBFI-138" value="8. App server strips refresh token from response and puts it in http only cookie. sends access token thru to frontend." style="text;html=1;align=center;verticalAlign=middle;whiteSpace=wrap;rounded=0;fontFamily=Helvetica;fontSize=11;fontColor=default;labelBackgroundColor=default;" vertex="1" parent="1">
          <mxGeometry x="450" y="470" width="350" height="40" as="geometry" />
        </mxCell>
      </root>
    </mxGraphModel>
  </diagram>
</mxfile>
